<svg width="28" height="28" viewBox="0 0 28 28" fill="none" xmlns="http://www.w3.org/2000/svg">
<path d="M27.8264 11.6667C27.7457 11.1929 27.6412 10.7234 27.5133 10.26C27.3589 9.71897 27.1743 9.18702 26.9602 8.6667C26.7603 8.18003 26.5405 7.70003 26.2939 7.23336C25.9608 6.63558 25.5844 6.06295 25.1679 5.52002C24.7614 4.98564 24.316 4.48205 23.8353 4.01335C23.2649 3.47197 22.6522 2.97706 22.003 2.53334C20.312 1.34269 18.3774 0.543374 16.3395 0.193334C15.8664 0.113334 15.3401 0.0600002 14.907 0H13.4944C12.9969 0.0188589 12.5009 0.065599 12.0086 0.140001C11.5888 0.200001 11.1757 0.280001 10.7626 0.373335C10.2242 0.498938 9.69454 0.659274 9.17685 0.853336C8.97696 0.924448 8.77707 1.00445 8.57719 1.09334C7.92888 1.3637 7.30286 1.68469 6.7049 2.05334C3.75426 3.85449 1.57432 6.68464 0.585188 9.99837C-0.403941 13.3121 -0.132251 16.8749 1.3479 20.0001C1.78638 20.9007 2.32265 21.7503 2.947 22.5334C3.80806 23.674 4.84223 24.6728 6.01195 25.4934C6.97186 26.1853 8.02366 26.7395 9.13687 27.1401C9.58659 27.3063 10.0447 27.4488 10.5094 27.5668C13.1257 28.2296 15.8767 28.1301 18.4383 27.2801C19.1002 27.059 19.7439 26.7871 20.3639 26.4668C21.2445 26.015 22.0752 25.472 22.8425 24.8468C23.2678 24.4945 23.6748 24.1207 24.0618 23.7268C24.6747 23.0858 25.2299 22.392 25.7209 21.6534C25.9874 21.2467 26.2273 20.8267 26.4538 20.3934C26.8063 19.6806 27.1004 18.9404 27.3334 18.1801C27.4798 17.7229 27.5999 17.2577 27.6932 16.7867C27.8887 15.8705 27.9914 14.9369 27.9996 14.0001C28.0051 13.2189 27.9472 12.4385 27.8264 11.6667ZM6.17853 4.18668C6.72913 3.74052 7.31772 3.34345 7.93754 3.00001C8.25736 2.82668 8.60384 2.66001 8.91033 2.51334C10.3115 1.89411 11.8121 1.53061 13.3412 1.44001H14.9803C15.2355 1.44605 15.4898 1.47505 15.7398 1.52667C15.4933 1.58001 15.2534 1.64001 15.0136 1.70667C14.4472 1.86001 13.8875 2.03334 13.3345 2.23334C12.7815 2.43334 12.3817 2.60001 11.922 2.81334C11.329 3.08001 10.7493 3.37335 10.1896 3.69335C9.62993 4.01335 9.2035 4.32002 8.67713 4.66668C8.20985 4.98024 7.76461 5.3255 7.34454 5.70002C6.79387 6.1502 6.26889 6.63095 5.77209 7.14003C3.92663 9.00209 2.46028 11.2051 1.45451 13.6267C1.50733 11.8039 1.95747 10.0147 2.77344 8.38413C3.58942 6.75356 4.75154 5.32102 6.17853 4.18668ZM1.83429 17.0601C2.51962 14.1859 3.86823 11.5122 5.77209 9.25337C6.21329 8.72412 6.68493 8.22104 7.18463 7.74669C7.67555 7.27218 8.19393 6.82697 8.7371 6.41336C9.18498 6.06098 9.65211 5.73381 10.1363 5.43335C10.7386 5.03883 11.3638 4.68042 12.0086 4.36002C12.455 4.14002 12.9148 3.94001 13.3812 3.75335C13.9835 3.52023 14.5973 3.31775 15.2201 3.14668C15.6799 3.02001 16.1396 2.90668 16.606 2.81334C17.4199 2.65306 18.2435 2.54617 19.0713 2.49334C20.0014 2.90642 20.8784 3.4302 21.6832 4.05335C20.1444 4.17329 18.6243 4.46853 17.1524 4.93335C16.6993 5.07335 16.2529 5.23335 15.8198 5.40669C15.1364 5.67978 14.4691 5.99139 13.8209 6.34002C13.3812 6.57336 12.9481 6.82002 12.5283 7.08003C11.8024 7.53897 11.1038 8.03982 10.4361 8.58003C10.0097 8.93337 9.58995 9.29337 9.19684 9.68004C8.58238 10.2648 8.00597 10.8883 7.47114 11.5467C7.07136 12.04 6.69157 12.5534 6.33178 13.0867C4.82462 15.3129 3.77589 17.8172 3.24684 20.4534C2.60904 19.3993 2.13289 18.2555 1.83429 17.0601ZM4.41951 22.1001C4.72991 19.5702 5.55049 17.1298 6.8315 14.9267C7.1399 14.3776 7.47799 13.8457 7.84426 13.3334C8.37183 12.5999 8.95074 11.9048 9.57663 11.2534C9.94309 10.8667 10.3362 10.4934 10.736 10.1334C11.4143 9.53435 12.1359 8.98619 12.8948 8.49336C13.3012 8.22003 13.721 7.97336 14.1541 7.73336C14.8408 7.35371 15.5507 7.0175 16.2795 6.72669C16.7193 6.55336 17.1657 6.39336 17.6121 6.25336C19.4174 5.68833 21.2974 5.39842 23.189 5.39335C23.7398 5.97709 24.235 6.61095 24.6682 7.28669C22.6447 7.44924 20.6571 7.91441 18.7715 8.6667C18.3251 8.8467 17.892 9.04003 17.4389 9.2467C16.6745 9.62723 15.9355 10.057 15.2268 10.5334C14.8204 10.7934 14.4272 11.0734 14.0475 11.36C13.2688 11.9481 12.534 12.592 11.8487 13.2867C11.4889 13.6534 11.1424 14.0334 10.8093 14.4201C10.19 15.1462 9.62229 15.9147 9.11022 16.7201C8.81039 17.1934 8.53054 17.6867 8.27069 18.1801C7.31886 19.9745 6.64488 21.9032 6.27181 23.9001C5.59368 23.366 4.9729 22.7627 4.41951 22.1001ZM9.49001 25.7268C8.82684 25.4688 8.18706 25.1543 7.57774 24.7868C7.84731 23 8.37474 21.2618 9.14353 19.6267C9.37896 19.129 9.63215 18.6423 9.90311 18.1667C10.3892 17.3272 10.9371 16.5249 11.5422 15.7667C11.8553 15.3801 12.2085 15.0001 12.535 14.6334C13.2112 13.9068 13.9466 13.2378 14.7337 12.6334C15.1069 12.34 15.4933 12.06 15.8931 11.8C16.629 11.2978 17.4019 10.8521 18.2051 10.4667C18.6382 10.26 19.078 10.0667 19.5377 9.89337C21.4162 9.17291 23.3981 8.75875 25.4078 8.6667C25.673 9.24067 25.8957 9.83338 26.0741 10.44C24.3497 10.717 22.668 11.2144 21.0702 11.92C20.6238 12.12 20.1774 12.34 19.7376 12.5867C18.9248 13.0242 18.1414 13.5141 17.3923 14.0534C17.0058 14.3267 16.6327 14.6201 16.2662 14.9267C15.4887 15.5714 14.7604 16.2734 14.0874 17.0267C13.761 17.3934 13.4545 17.7601 13.1546 18.1467C12.5624 18.8995 12.0299 19.6975 11.5622 20.5334C11.309 20.9801 11.0691 21.4334 10.8492 21.8667C10.2654 23.1035 9.80998 24.397 9.49001 25.7268ZM14.0075 26.5734C12.935 26.5754 11.8667 26.4388 10.8293 26.1668C11.0903 25.0766 11.4493 24.0122 11.902 22.9867C13.2563 24.3017 14.7854 25.4234 16.4461 26.3201C15.643 26.4809 14.8265 26.5657 14.0075 26.5734ZM18.4783 25.7534C16.263 24.7675 14.2552 23.3694 12.5616 21.6334C13.0086 20.7943 13.521 19.9918 14.0941 19.2334C16.0936 21.4067 18.5393 23.1215 21.2634 24.2601C20.4068 24.8701 19.4781 25.3717 18.4983 25.7534H18.4783ZM22.5294 23.2334C19.644 22.1588 17.0609 20.4022 15.0003 18.1134C15.676 17.3517 16.4113 16.6451 17.199 16.0001C19.1906 18.2117 21.6392 19.9634 24.375 21.1334C23.8446 21.8978 23.2325 22.602 22.5494 23.2334H22.5294ZM25.1079 19.9001C22.5167 18.8296 20.1937 17.1996 18.3051 15.1267C19.0744 14.5794 19.8828 14.0892 20.7237 13.66C22.2773 15.2461 24.0774 16.5699 26.0541 17.5801C25.8098 18.3784 25.4931 19.1527 25.1079 19.8934V19.9001ZM26.3939 16.1467C24.8259 15.3141 23.3835 14.2636 22.1096 13.0267C23.4839 12.4627 24.9196 12.0622 26.3872 11.8334C26.5161 12.5486 26.5852 13.2733 26.5938 14.0001C26.594 14.7172 26.5338 15.433 26.4139 16.1401L26.3939 16.1467Z" fill="#5C16CB"/>
</svg>
