<svg width="12" height="12" viewBox="0 0 12 12" fill="none" xmlns="http://www.w3.org/2000/svg">
<path d="M7.41818 3.99681H10.9091C11.1984 3.99681 11.4759 4.11121 11.6805 4.31485C11.8851 4.51848 12 4.79467 12 5.08265V6.22495C12.0001 6.36685 11.9723 6.5074 11.9182 6.63865L10.23 10.7187C10.1888 10.8182 10.1189 10.9032 10.029 10.963C9.93921 11.0229 9.83354 11.0548 9.72545 11.0547H0.545455C0.400791 11.0547 0.262052 10.9975 0.15976 10.8957C0.0574673 10.7939 0 10.6558 0 10.5118V5.08265C0 4.93866 0.0574673 4.80056 0.15976 4.69875C0.262052 4.59693 0.400791 4.53973 0.545455 4.53973H2.44473C2.53205 4.53975 2.61811 4.51891 2.69565 4.47894C2.7732 4.43898 2.83998 4.38107 2.89036 4.31008L5.86473 0.114947C5.90233 0.0619106 5.95778 0.0240408 6.02102 0.00820372C6.08426 -0.00763334 6.15112 -0.000389187 6.20945 0.0286227L7.19891 0.52105C7.47736 0.659582 7.69982 0.888776 7.82931 1.17055C7.9588 1.45233 7.98753 1.76972 7.91073 2.07L7.41818 3.99681ZM3.27273 5.40188V9.96891H9.36L10.9091 6.22495V5.08265H7.41818C7.25204 5.08262 7.08809 5.04483 6.93885 4.97214C6.78961 4.89946 6.65903 4.7938 6.55706 4.66324C6.45509 4.53267 6.38443 4.38065 6.35046 4.21877C6.3165 4.05689 6.32014 3.88942 6.36109 3.72915L6.85364 1.80288C6.86905 1.74279 6.86333 1.67926 6.83743 1.62286C6.81153 1.56646 6.76701 1.52059 6.71127 1.49287L6.35073 1.31371L3.78164 4.93606C3.64527 5.12825 3.47073 5.2857 3.27273 5.40188ZM2.18182 5.62557H1.09091V9.96891H2.18182V5.62557Z" fill="#818189"/>
</svg>
