<svg width="16" height="11" viewBox="0 0 16 11" fill="none" xmlns="http://www.w3.org/2000/svg">
<g clip-path="url(#clip0)">
<path d="M7.55078 8.5C6.95744 8.5 6.37742 8.32405 5.88407 7.99441C5.39072 7.66477 5.00621 7.19623 4.77914 6.64805C4.55208 6.09987 4.49267 5.49667 4.60843 4.91473C4.72418 4.33279 5.0099 3.79824 5.42946 3.37868C5.84902 2.95912 6.38357 2.6734 6.96551 2.55765C7.54745 2.44189 8.15065 2.5013 8.69883 2.72836C9.24701 2.95543 9.71555 3.33994 10.0452 3.83329C10.3748 4.32664 10.5508 4.90666 10.5508 5.5C10.5508 6.29565 10.2347 7.05871 9.6721 7.62132C9.10949 8.18393 8.34643 8.5 7.55078 8.5ZM7.55078 3.5C7.15522 3.5 6.76854 3.6173 6.43964 3.83706C6.11074 4.05682 5.8544 4.36918 5.70302 4.73463C5.55165 5.10009 5.51204 5.50222 5.58921 5.89018C5.66638 6.27814 5.85686 6.63451 6.13657 6.91422C6.41627 7.19392 6.77264 7.3844 7.1606 7.46157C7.54856 7.53874 7.9507 7.49914 8.31615 7.34776C8.6816 7.19638 8.99396 6.94004 9.21372 6.61114C9.43348 6.28224 9.55078 5.89556 9.55078 5.5C9.55078 4.96957 9.34007 4.46086 8.965 4.08579C8.58992 3.71072 8.08122 3.5 7.55078 3.5Z" fill="#818189"/>
<path d="M7.55 11C2.89 11 0.78 7.29 0.09 5.7L0 5.5L0.09 5.3C0.78 3.7 2.89 0 7.55 0C12.21 0 14.32 3.7 15.01 5.3L15.09 5.5L15.01 5.7C14.32 7.29 12.21 11 7.55 11ZM1.1 5.5C1.6007 6.80983 2.48325 7.9391 3.63329 8.74145C4.78333 9.5438 6.14784 9.98226 7.55 10C8.95216 9.98226 10.3167 9.5438 11.4667 8.74145C12.6167 7.9391 13.4993 6.80983 14 5.5C13.4993 4.19017 12.6167 3.0609 11.4667 2.25855C10.3167 1.4562 8.95216 1.01774 7.55 1C6.14784 1.01774 4.78333 1.4562 3.63329 2.25855C2.48325 3.0609 1.6007 4.19017 1.1 5.5Z" fill="#818189"/>
</g>
<defs>
<clipPath id="clip0">
<rect width="15.09" height="11" fill="white"/>
</clipPath>
</defs>
</svg>
